<svg width="18" height="14" viewBox="0 0 18 14" fill="none" xmlns="http://www.w3.org/2000/svg">
<path d="M17.125 2.625V11.375C17.125 12.4105 16.2855 13.25 15.25 13.25H2.75C1.71447 13.25 0.875 12.4105 0.875 11.375V2.625M17.125 2.625C17.125 1.58947 16.2855 0.75 15.25 0.75H2.75C1.71447 0.75 0.875 1.58947 0.875 2.625M17.125 2.625V2.82726C17.125 3.47837 16.7872 4.08287 16.2327 4.42412L9.98268 8.27027C9.38004 8.64113 8.61996 8.64113 8.01732 8.27027L1.76732 4.42412C1.21279 4.08287 0.875 3.47837 0.875 2.82726V2.625" stroke="#8F95B2" stroke-width="1.5" stroke-linecap="round" stroke-linejoin="round"/>
<path d="M17.125 2.625V11.375C17.125 12.4105 16.2855 13.25 15.25 13.25H2.75C1.71447 13.25 0.875 12.4105 0.875 11.375V2.625M17.125 2.625C17.125 1.58947 16.2855 0.75 15.25 0.75H2.75C1.71447 0.75 0.875 1.58947 0.875 2.625M17.125 2.625V2.82726C17.125 3.47837 16.7872 4.08287 16.2327 4.42412L9.98268 8.27027C9.38004 8.64113 8.61996 8.64113 8.01732 8.27027L1.76732 4.42412C1.21279 4.08287 0.875 3.47837 0.875 2.82726V2.625" stroke="black" stroke-opacity="0.2" stroke-width="1.5" stroke-linecap="round" stroke-linejoin="round"/>
</svg>
