<svg width="20" height="20" viewBox="0 0 20 20" fill="none" xmlns="http://www.w3.org/2000/svg">
<path d="M15.5743 16.512C15.2144 15.5047 14.4215 14.6147 13.3185 13.98C12.2155 13.3452 10.864 13.0012 9.47369 13.0012C8.08337 13.0012 6.7319 13.3452 5.62888 13.98C4.52587 14.6147 3.73295 15.5047 3.37311 16.512" stroke="#8F95B2" stroke-width="1.5" stroke-linecap="round"/>
<path d="M15.5743 16.512C15.2144 15.5047 14.4215 14.6147 13.3185 13.98C12.2155 13.3452 10.864 13.0012 9.47369 13.0012C8.08337 13.0012 6.7319 13.3452 5.62888 13.98C4.52587 14.6147 3.73295 15.5047 3.37311 16.512" stroke="black" stroke-opacity="0.2" stroke-width="1.5" stroke-linecap="round"/>
<path d="M9.47369 9.84326C11.2177 9.84326 12.6316 8.42942 12.6316 6.68536C12.6316 4.9413 11.2177 3.52747 9.47369 3.52747C7.72963 3.52747 6.3158 4.9413 6.3158 6.68536C6.3158 8.42942 7.72963 9.84326 9.47369 9.84326Z" stroke="#8F95B2" stroke-width="1.5" stroke-linecap="round"/>
<path d="M9.47369 9.84326C11.2177 9.84326 12.6316 8.42942 12.6316 6.68536C12.6316 4.9413 11.2177 3.52747 9.47369 3.52747C7.72963 3.52747 6.3158 4.9413 6.3158 6.68536C6.3158 8.42942 7.72963 9.84326 9.47369 9.84326Z" stroke="black" stroke-opacity="0.2" stroke-width="1.5" stroke-linecap="round"/>
</svg>
